<?xml version="1.0" standalone="no"?>
<!DOCTYPE svg PUBLIC "-//W3C//DTD SVG 20010904//EN"
 "http://www.w3.org/TR/2001/REC-SVG-20010904/DTD/svg10.dtd">
<svg version="1.0" xmlns="http://www.w3.org/2000/svg"
 width="512.000000pt" height="512.000000pt" viewBox="0 0 512.000000 512.000000"
 preserveAspectRatio="xMidYMid meet">

<g transform="translate(0.000000,512.000000) scale(0.100000,-0.100000)"
fill="#008100" stroke="none">
<path d="M0 2560 l0 -2560 2560 0 2560 0 0 2560 0 2560 -2560 0 -2560 0 0
-2560z m3852 1908 c3 -7 6 -352 7 -766 2 -567 -1 -757 -10 -768 -9 -11 -50
-14 -206 -14 l-195 0 -29 31 c-16 17 -82 101 -146 187 -134 178 -202 251 -259
280 -77 39 -138 43 -589 40 l-430 -3 -57 -28 c-70 -34 -94 -64 -220 -267 -138
-221 -171 -290 -162 -334 18 -99 134 -147 212 -88 20 16 165 233 259 390 l37
62 158 0 c120 0 158 -3 158 -12 0 -7 -21 -49 -45 -93 -92 -164 -175 -335 -200
-409 -31 -92 -50 -217 -65 -431 -19 -267 -30 -359 -43 -367 -6 -4 -142 -8
-302 -8 -326 -1 -417 -9 -490 -45 -89 -43 -180 -154 -210 -252 l-6 -23 590 0
c644 0 676 2 721 52 36 39 45 85 75 388 27 275 32 310 45 310 4 0 21 -26 38
-57 201 -390 329 -637 427 -828 189 -369 173 -355 415 -355 88 0 160 2 160 4
0 2 -97 202 -216 443 -424 859 -484 985 -484 1018 0 17 200 447 216 464 8 8
47 -35 101 -114 84 -119 168 -203 217 -216 24 -7 140 -12 281 -13 l240 -1 3
-854 2 -854 -125 -127 -126 -127 -167 -6 c-164 -6 -282 -1 -282 13 0 3 62 68
138 144 l137 137 -165 -3 c-162 -3 -166 -4 -215 -32 -27 -16 -103 -82 -168
-145 l-119 -116 -816 0 c-627 0 -817 3 -817 12 0 7 52 67 115 134 l115 122 -3
236 c-1 130 -2 246 -2 259 l0 22 -229 0 c-130 0 -232 4 -236 9 -9 15 38 133
86 217 79 138 218 242 335 252 50 4 54 6 55 31 0 14 2 584 4 1266 1 682 3
1241 4 1243 0 1 559 2 1240 2 982 0 1240 -3 1243 -12z"/>
<path d="M2875 4100 c-90 -22 -165 -84 -196 -162 -39 -96 -15 -245 52 -316 58
-61 103 -84 177 -90 128 -9 228 42 290 146 24 42 27 56 27 142 0 86 -3 100
-27 142 -66 111 -201 169 -323 138z"/>
</g>
</svg>
