<svg id="svg" version="1.1" xmlns="http://www.w3.org/2000/svg" xmlns:xlink="http://www.w3.org/1999/xlink" width="400" height="400" viewBox="0, 0, 400,400"><g id="svgg"><path id="path0" d="M108.600 50.679 C 108.160 50.788,107.635 51.034,107.433 51.226 C 107.212 51.435,107.045 90.672,107.013 149.550 C 106.972 225.062,106.850 247.658,106.480 248.103 C 106.166 248.481,104.839 248.763,102.637 248.918 C 89.468 249.848,74.939 264.618,70.147 281.948 C 69.073 285.832,67.920 285.600,88.253 285.600 C 101.282 285.600,105.626 285.719,105.850 286.080 C 106.013 286.344,106.184 295.299,106.231 305.980 C 106.331 328.986,106.848 326.604,100.370 333.001 C 93.883 339.407,88.400 345.404,88.400 346.094 C 88.400 347.125,89.524 347.140,152.820 346.944 C 218.673 346.741,215.844 346.831,217.276 344.896 C 218.356 343.436,231.494 330.916,233.800 329.149 C 237.024 326.678,240.748 324.853,243.916 324.190 C 246.924 323.561,267.049 323.832,267.466 324.507 C 267.596 324.717,263.175 329.296,257.643 334.684 C 247.209 344.847,246.322 345.851,247.259 346.445 C 248.218 347.053,278.626 346.883,280.113 346.262 C 281.224 345.797,298.984 328.419,300.017 326.786 C 300.560 325.927,300.524 195.379,299.980 194.363 C 299.572 193.600,299.066 193.580,281.280 193.645 C 255.112 193.741,254.572 193.484,241.958 174.992 C 238.109 169.349,236.037 167.057,235.107 167.414 C 234.535 167.634,230.955 174.771,227.350 182.879 C 226.402 185.013,223.980 190.036,221.968 194.042 C 217.106 203.724,216.739 201.494,226.500 221.600 C 228.476 225.670,231.263 231.430,232.693 234.400 C 234.124 237.370,240.584 250.464,247.050 263.499 C 253.516 276.533,259.862 289.403,261.152 292.099 C 262.442 294.794,265.601 301.290,268.172 306.533 C 270.743 311.776,272.788 316.366,272.717 316.733 C 272.600 317.339,271.408 317.400,259.594 317.400 L 246.600 317.400 244.464 316.217 C 240.255 313.885,238.813 311.816,231.495 297.600 C 229.626 293.970,226.839 288.570,225.301 285.600 C 223.764 282.630,220.792 276.870,218.697 272.800 C 216.603 268.730,214.177 264.050,213.308 262.400 C 212.438 260.750,209.691 255.440,207.205 250.600 C 204.718 245.760,202.017 240.540,201.203 239.000 C 200.389 237.460,197.962 232.825,195.809 228.700 C 193.657 224.575,191.682 221.200,191.420 221.200 C 190.722 221.200,189.988 226.604,188.405 243.400 C 187.654 251.360,187.397 253.821,186.379 262.800 C 185.361 271.784,183.236 276.072,179.000 277.689 C 175.128 279.167,171.859 279.254,125.200 279.125 L 79.800 279.000 79.683 277.997 C 79.342 275.078,84.709 266.008,89.207 261.903 C 97.439 254.390,101.144 253.698,135.130 253.326 C 154.952 253.110,157.753 253.003,158.441 252.440 C 159.303 251.734,160.009 244.906,160.803 229.600 C 161.014 225.530,161.367 220.760,161.587 219.000 C 161.808 217.240,162.177 213.762,162.408 211.271 C 163.983 194.291,167.061 185.921,181.148 160.317 C 183.412 156.201,185.203 152.511,185.127 152.117 C 184.999 151.451,184.185 151.392,173.676 151.294 L 162.362 151.187 161.334 152.294 C 160.461 153.235,153.817 163.489,148.200 172.567 C 139.250 187.030,138.270 187.994,132.200 188.304 C 126.034 188.620,121.943 185.147,121.006 178.800 C 120.492 175.319,123.373 169.416,133.010 154.200 C 134.821 151.340,137.604 146.892,139.193 144.315 C 144.627 135.505,148.016 132.471,154.800 130.342 L 157.800 129.400 191.800 129.400 C 239.277 129.400,236.898 128.489,255.400 153.762 C 259.795 159.766,267.593 169.536,268.657 170.374 C 269.677 171.176,270.153 171.200,284.840 171.200 L 299.972 171.200 300.486 170.300 C 301.294 168.885,300.960 52.051,300.146 51.200 C 299.582 50.611,110.934 50.098,108.600 50.679 M235.907 79.370 C 262.013 86.320,256.553 124.869,229.474 124.793 C 203.275 124.719,198.558 85.607,224.000 79.403 C 226.925 78.690,233.285 78.672,235.907 79.370 " stroke="none" fill="#f6f9f6" fill-rule="evenodd"></path><path id="path1" d="M174.800 0.282 C 173.370 0.370,172.029 0.613,171.820 0.821 C 171.611 1.030,170.587 1.200,169.544 1.200 C 168.501 1.200,167.536 1.380,167.400 1.600 C 167.264 1.820,166.353 2.000,165.376 2.000 C 164.399 2.000,163.600 2.180,163.600 2.400 C 163.600 2.620,162.621 2.800,161.424 2.800 C 160.227 2.800,159.136 2.980,159.000 3.200 C 158.864 3.420,157.784 3.600,156.600 3.600 C 155.416 3.600,154.336 3.780,154.200 4.000 C 154.064 4.220,153.344 4.400,152.600 4.400 C 151.856 4.400,151.136 4.580,151.000 4.800 C 150.864 5.020,150.223 5.200,149.576 5.200 C 148.929 5.200,148.400 5.380,148.400 5.600 C 148.400 5.820,147.871 6.000,147.224 6.000 C 146.577 6.000,145.936 6.180,145.800 6.400 C 145.664 6.620,145.124 6.800,144.600 6.800 C 144.076 6.800,143.536 6.980,143.400 7.200 C 143.264 7.420,142.544 7.600,141.800 7.600 C 141.056 7.600,140.336 7.780,140.200 8.000 C 140.064 8.220,139.344 8.400,138.600 8.400 C 137.856 8.400,137.150 8.557,137.032 8.748 C 136.914 8.940,136.274 9.205,135.611 9.338 C 134.947 9.471,133.650 9.944,132.727 10.390 C 131.805 10.835,130.811 11.200,130.519 11.200 C 130.228 11.200,129.677 11.358,129.295 11.551 C 128.913 11.744,127.880 12.119,127.000 12.384 C 126.120 12.650,124.455 13.302,123.300 13.833 C 119.286 15.681,116.595 16.886,115.800 17.191 C 114.541 17.675,111.021 19.367,110.800 19.595 C 110.690 19.709,110.105 20.056,109.500 20.368 C 108.895 20.680,108.400 21.085,108.400 21.268 C 108.400 21.450,107.961 21.600,107.424 21.600 C 106.887 21.600,106.336 21.780,106.200 22.000 C 106.064 22.220,105.686 22.400,105.360 22.400 C 105.033 22.400,104.380 22.760,103.908 23.200 C 103.436 23.640,102.813 24.000,102.525 24.000 C 102.236 24.000,102.000 24.180,102.000 24.400 C 102.000 24.620,101.640 24.800,101.200 24.800 C 100.760 24.800,100.400 24.946,100.400 25.125 C 100.400 25.304,99.730 25.709,98.910 26.025 C 98.091 26.341,96.565 27.185,95.520 27.900 C 94.474 28.615,93.435 29.200,93.210 29.200 C 92.984 29.200,92.800 29.352,92.800 29.537 C 92.800 29.723,91.945 30.304,90.900 30.830 C 89.855 31.356,88.709 32.104,88.353 32.493 C 87.997 32.882,87.529 33.200,87.312 33.200 C 87.096 33.200,86.354 33.740,85.663 34.400 C 84.972 35.060,84.215 35.600,83.980 35.600 C 83.514 35.600,80.589 37.780,79.553 38.900 C 79.197 39.285,78.782 39.600,78.630 39.600 C 78.383 39.600,75.307 41.864,74.800 42.419 C 74.690 42.539,73.435 43.525,72.011 44.611 C 70.586 45.696,68.718 47.218,67.860 47.992 C 66.220 49.470,60.486 54.889,59.800 55.610 C 59.281 56.154,56.154 59.281,55.610 59.800 C 54.889 60.486,49.470 66.220,47.992 67.860 C 47.218 68.718,45.696 70.586,44.611 72.011 C 43.525 73.435,42.539 74.690,42.419 74.800 C 41.864 75.307,39.600 78.383,39.600 78.630 C 39.600 78.782,39.285 79.197,38.900 79.553 C 37.780 80.589,35.600 83.514,35.600 83.980 C 35.600 84.215,35.060 84.972,34.400 85.663 C 33.740 86.354,33.200 87.096,33.200 87.312 C 33.200 87.529,32.882 87.997,32.493 88.353 C 32.104 88.709,31.356 89.855,30.830 90.900 C 30.304 91.945,29.723 92.800,29.537 92.800 C 29.352 92.800,29.200 92.984,29.200 93.210 C 29.200 93.435,28.615 94.474,27.900 95.520 C 27.185 96.565,26.341 98.091,26.025 98.910 C 25.709 99.730,25.304 100.400,25.125 100.400 C 24.946 100.400,24.800 100.760,24.800 101.200 C 24.800 101.640,24.620 102.000,24.400 102.000 C 24.180 102.000,24.000 102.236,24.000 102.525 C 24.000 102.813,23.640 103.436,23.200 103.908 C 22.760 104.380,22.400 105.033,22.400 105.360 C 22.400 105.686,22.220 106.064,22.000 106.200 C 21.780 106.336,21.600 106.887,21.600 107.424 C 21.600 107.961,21.450 108.400,21.268 108.400 C 21.085 108.400,20.680 108.895,20.368 109.500 C 20.056 110.105,19.709 110.690,19.595 110.800 C 19.367 111.021,17.675 114.541,17.191 115.800 C 16.886 116.595,15.681 119.286,13.833 123.300 C 13.302 124.455,12.650 126.120,12.384 127.000 C 12.119 127.880,11.744 128.913,11.551 129.295 C 11.358 129.677,11.200 130.228,11.200 130.519 C 11.200 130.811,10.835 131.805,10.390 132.727 C 9.944 133.650,9.471 134.947,9.338 135.611 C 9.205 136.274,8.940 136.914,8.748 137.032 C 8.557 137.150,8.400 137.856,8.400 138.600 C 8.400 139.344,8.220 140.064,8.000 140.200 C 7.780 140.336,7.600 141.056,7.600 141.800 C 7.600 142.544,7.420 143.264,7.200 143.400 C 6.980 143.536,6.800 144.076,6.800 144.600 C 6.800 145.124,6.620 145.664,6.400 145.800 C 6.180 145.936,6.000 146.577,6.000 147.224 C 6.000 147.871,5.820 148.400,5.600 148.400 C 5.380 148.400,5.200 148.929,5.200 149.576 C 5.200 150.223,5.020 150.864,4.800 151.000 C 4.580 151.136,4.400 151.856,4.400 152.600 C 4.400 153.344,4.220 154.064,4.000 154.200 C 3.780 154.336,3.600 155.416,3.600 156.600 C 3.600 157.784,3.420 158.864,3.200 159.000 C 2.980 159.136,2.800 160.227,2.800 161.424 C 2.800 162.621,2.620 163.600,2.400 163.600 C 2.180 163.600,2.000 164.399,2.000 165.376 C 2.000 166.353,1.820 167.264,1.600 167.400 C 1.380 167.536,1.200 168.501,1.200 169.544 C 1.200 170.587,0.975 171.665,0.700 171.940 C -0.030 172.670,-0.030 227.330,0.700 228.060 C 0.975 228.335,1.200 229.413,1.200 230.456 C 1.200 231.499,1.380 232.464,1.600 232.600 C 1.820 232.736,2.000 233.647,2.000 234.624 C 2.000 235.601,2.180 236.400,2.400 236.400 C 2.620 236.400,2.800 237.379,2.800 238.576 C 2.800 239.773,2.980 240.864,3.200 241.000 C 3.420 241.136,3.600 242.216,3.600 243.400 C 3.600 244.584,3.780 245.664,4.000 245.800 C 4.220 245.936,4.400 246.656,4.400 247.400 C 4.400 248.144,4.580 248.864,4.800 249.000 C 5.020 249.136,5.200 249.777,5.200 250.424 C 5.200 251.071,5.380 251.600,5.600 251.600 C 5.820 251.600,6.000 252.129,6.000 252.776 C 6.000 253.423,6.180 254.064,6.400 254.200 C 6.620 254.336,6.800 254.876,6.800 255.400 C 6.800 255.924,6.980 256.464,7.200 256.600 C 7.420 256.736,7.600 257.456,7.600 258.200 C 7.600 258.944,7.780 259.664,8.000 259.800 C 8.220 259.936,8.400 260.656,8.400 261.400 C 8.400 262.144,8.557 262.850,8.748 262.968 C 8.940 263.086,9.205 263.726,9.338 264.389 C 9.471 265.053,9.944 266.350,10.390 267.273 C 10.835 268.195,11.200 269.189,11.200 269.481 C 11.200 269.772,11.358 270.323,11.551 270.705 C 11.744 271.087,12.119 272.120,12.384 273.000 C 12.650 273.880,13.302 275.545,13.833 276.700 C 15.681 280.714,16.886 283.405,17.191 284.200 C 17.675 285.459,19.367 288.979,19.595 289.200 C 19.709 289.310,20.056 289.895,20.368 290.500 C 20.680 291.105,21.085 291.600,21.268 291.600 C 21.450 291.600,21.600 292.039,21.600 292.576 C 21.600 293.113,21.780 293.664,22.000 293.800 C 22.220 293.936,22.400 294.314,22.400 294.640 C 22.400 294.967,22.760 295.620,23.200 296.092 C 23.640 296.564,24.000 297.187,24.000 297.475 C 24.000 297.764,24.180 298.000,24.400 298.000 C 24.620 298.000,24.800 298.360,24.800 298.800 C 24.800 299.240,24.946 299.600,25.125 299.600 C 25.304 299.600,25.709 300.270,26.025 301.090 C 26.341 301.909,27.185 303.435,27.900 304.480 C 28.615 305.526,29.200 306.565,29.200 306.790 C 29.200 307.016,29.352 307.200,29.537 307.200 C 29.723 307.200,30.304 308.055,30.830 309.100 C 31.356 310.145,32.104 311.291,32.493 311.647 C 32.882 312.003,33.200 312.471,33.200 312.688 C 33.200 312.904,33.740 313.646,34.400 314.337 C 35.060 315.028,35.600 315.785,35.600 316.020 C 35.600 316.486,37.780 319.411,38.900 320.447 C 39.285 320.803,39.600 321.218,39.600 321.370 C 39.600 321.617,41.864 324.693,42.419 325.200 C 42.539 325.310,43.525 326.565,44.611 327.989 C 45.696 329.414,47.218 331.282,47.992 332.140 C 49.470 333.780,54.889 339.514,55.610 340.200 C 56.155 340.720,59.544 344.109,59.915 344.505 C 60.451 345.079,66.295 350.598,67.860 352.008 C 68.718 352.782,70.586 354.304,72.011 355.389 C 73.435 356.475,74.690 357.461,74.800 357.581 C 75.307 358.136,78.383 360.400,78.630 360.400 C 78.782 360.400,79.197 360.715,79.553 361.100 C 80.589 362.220,83.514 364.400,83.980 364.400 C 84.215 364.400,84.972 364.940,85.663 365.600 C 86.354 366.260,87.096 366.800,87.312 366.800 C 87.529 366.800,87.997 367.118,88.353 367.507 C 88.709 367.896,89.855 368.644,90.900 369.170 C 91.945 369.696,92.800 370.277,92.800 370.463 C 92.800 370.648,92.984 370.800,93.210 370.800 C 93.435 370.800,94.474 371.385,95.520 372.100 C 96.565 372.815,98.091 373.659,98.910 373.975 C 99.730 374.291,100.400 374.696,100.400 374.875 C 100.400 375.054,100.760 375.200,101.200 375.200 C 101.640 375.200,102.000 375.380,102.000 375.600 C 102.000 375.820,102.236 376.000,102.525 376.000 C 102.813 376.000,103.436 376.360,103.908 376.800 C 104.380 377.240,105.033 377.600,105.360 377.600 C 105.686 377.600,106.064 377.780,106.200 378.000 C 106.336 378.220,106.887 378.400,107.424 378.400 C 107.961 378.400,108.400 378.550,108.400 378.732 C 108.400 378.915,108.895 379.320,109.500 379.632 C 110.105 379.944,110.690 380.291,110.800 380.405 C 111.021 380.633,114.541 382.325,115.800 382.809 C 116.595 383.114,119.286 384.319,123.300 386.167 C 124.455 386.698,126.120 387.350,127.000 387.616 C 127.880 387.881,128.913 388.256,129.295 388.449 C 129.677 388.642,130.228 388.800,130.519 388.800 C 130.811 388.800,131.805 389.165,132.727 389.610 C 133.650 390.056,134.947 390.529,135.611 390.662 C 136.274 390.795,136.914 391.060,137.032 391.252 C 137.150 391.443,137.856 391.600,138.600 391.600 C 139.344 391.600,140.064 391.780,140.200 392.000 C 140.336 392.220,141.056 392.400,141.800 392.400 C 142.544 392.400,143.264 392.580,143.400 392.800 C 143.536 393.020,144.076 393.200,144.600 393.200 C 145.124 393.200,145.664 393.380,145.800 393.600 C 145.936 393.820,146.577 394.000,147.224 394.000 C 147.871 394.000,148.400 394.180,148.400 394.400 C 148.400 394.620,148.929 394.800,149.576 394.800 C 150.223 394.800,150.864 394.980,151.000 395.200 C 151.136 395.420,151.856 395.600,152.600 395.600 C 153.344 395.600,154.064 395.780,154.200 396.000 C 154.336 396.220,155.416 396.400,156.600 396.400 C 157.784 396.400,158.864 396.580,159.000 396.800 C 159.136 397.020,160.227 397.200,161.424 397.200 C 162.621 397.200,163.600 397.380,163.600 397.600 C 163.600 397.820,164.399 398.000,165.376 398.000 C 166.353 398.000,167.264 398.180,167.400 398.400 C 167.536 398.620,168.501 398.800,169.544 398.800 C 170.587 398.800,171.665 399.025,171.940 399.300 C 172.670 400.030,227.330 400.030,228.060 399.300 C 228.335 399.025,229.413 398.800,230.456 398.800 C 231.499 398.800,232.464 398.620,232.600 398.400 C 232.736 398.180,233.647 398.000,234.624 398.000 C 235.601 398.000,236.400 397.820,236.400 397.600 C 236.400 397.380,237.379 397.200,238.576 397.200 C 239.773 397.200,240.864 397.020,241.000 396.800 C 241.136 396.580,242.216 396.400,243.400 396.400 C 244.584 396.400,245.664 396.220,245.800 396.000 C 245.936 395.780,246.656 395.600,247.400 395.600 C 248.144 395.600,248.864 395.420,249.000 395.200 C 249.136 394.980,249.777 394.800,250.424 394.800 C 251.071 394.800,251.600 394.620,251.600 394.400 C 251.600 394.180,252.129 394.000,252.776 394.000 C 253.423 394.000,254.064 393.820,254.200 393.600 C 254.336 393.380,254.876 393.200,255.400 393.200 C 255.924 393.200,256.464 393.020,256.600 392.800 C 256.736 392.580,257.456 392.400,258.200 392.400 C 258.944 392.400,259.664 392.220,259.800 392.000 C 259.936 391.780,260.656 391.600,261.400 391.600 C 262.144 391.600,262.850 391.443,262.968 391.252 C 263.086 391.060,263.726 390.795,264.389 390.662 C 265.053 390.529,266.350 390.056,267.273 389.610 C 268.195 389.165,269.189 388.800,269.481 388.800 C 269.772 388.800,270.323 388.642,270.705 388.449 C 271.087 388.256,272.120 387.881,273.000 387.616 C 273.880 387.350,275.545 386.698,276.700 386.167 C 280.714 384.319,283.405 383.114,284.200 382.809 C 285.459 382.325,288.979 380.633,289.200 380.405 C 289.310 380.291,289.895 379.944,290.500 379.632 C 291.105 379.320,291.600 378.915,291.600 378.732 C 291.600 378.550,292.039 378.400,292.576 378.400 C 293.113 378.400,293.664 378.220,293.800 378.000 C 293.936 377.780,294.314 377.600,294.640 377.600 C 294.967 377.600,295.620 377.240,296.092 376.800 C 296.564 376.360,297.187 376.000,297.475 376.000 C 297.764 376.000,298.000 375.820,298.000 375.600 C 298.000 375.380,298.360 375.200,298.800 375.200 C 299.240 375.200,299.600 375.054,299.600 374.875 C 299.600 374.696,300.270 374.291,301.090 373.975 C 301.909 373.659,303.435 372.815,304.480 372.100 C 305.526 371.385,306.565 370.800,306.790 370.800 C 307.016 370.800,307.200 370.648,307.200 370.463 C 307.200 370.277,308.055 369.696,309.100 369.170 C 310.145 368.644,311.291 367.896,311.647 367.507 C 312.003 367.118,312.471 366.800,312.688 366.800 C 312.904 366.800,313.646 366.260,314.337 365.600 C 315.028 364.940,315.785 364.400,316.020 364.400 C 316.486 364.400,319.411 362.220,320.447 361.100 C 320.803 360.715,321.218 360.400,321.370 360.400 C 321.617 360.400,324.693 358.136,325.200 357.581 C 325.310 357.461,326.565 356.475,327.989 355.389 C 329.414 354.304,331.282 352.782,332.140 352.008 C 333.743 350.563,339.529 345.097,340.143 344.448 C 340.588 343.977,343.977 340.588,344.448 340.143 C 345.097 339.529,350.563 333.743,352.008 332.140 C 352.782 331.282,354.304 329.414,355.389 327.989 C 356.475 326.565,357.461 325.310,357.581 325.200 C 358.136 324.693,360.400 321.617,360.400 321.370 C 360.400 321.218,360.715 320.803,361.100 320.447 C 362.220 319.411,364.400 316.486,364.400 316.020 C 364.400 315.785,364.940 315.028,365.600 314.337 C 366.260 313.646,366.800 312.904,366.800 312.688 C 366.800 312.471,367.118 312.003,367.507 311.647 C 367.896 311.291,368.644 310.145,369.170 309.100 C 369.696 308.055,370.277 307.200,370.463 307.200 C 370.648 307.200,370.800 307.016,370.800 306.790 C 370.800 306.565,371.385 305.526,372.100 304.480 C 372.815 303.435,373.659 301.909,373.975 301.090 C 374.291 300.270,374.696 299.600,374.875 299.600 C 375.054 299.600,375.200 299.240,375.200 298.800 C 375.200 298.360,375.380 298.000,375.600 298.000 C 375.820 298.000,376.000 297.764,376.000 297.475 C 376.000 297.187,376.360 296.564,376.800 296.092 C 377.240 295.620,377.600 294.967,377.600 294.640 C 377.600 294.314,377.780 293.936,378.000 293.800 C 378.220 293.664,378.400 293.113,378.400 292.576 C 378.400 292.039,378.550 291.600,378.732 291.600 C 378.915 291.600,379.320 291.105,379.632 290.500 C 379.944 289.895,380.291 289.310,380.405 289.200 C 380.633 288.979,382.325 285.459,382.809 284.200 C 383.114 283.405,384.319 280.714,386.167 276.700 C 386.698 275.545,387.350 273.880,387.616 273.000 C 387.881 272.120,388.256 271.087,388.449 270.705 C 388.642 270.323,388.800 269.772,388.800 269.481 C 388.800 269.189,389.165 268.195,389.610 267.273 C 390.056 266.350,390.529 265.053,390.662 264.389 C 390.795 263.726,391.060 263.086,391.252 262.968 C 391.443 262.850,391.600 262.144,391.600 261.400 C 391.600 260.656,391.780 259.936,392.000 259.800 C 392.220 259.664,392.400 258.944,392.400 258.200 C 392.400 257.456,392.580 256.736,392.800 256.600 C 393.020 256.464,393.200 255.924,393.200 255.400 C 393.200 254.876,393.380 254.336,393.600 254.200 C 393.820 254.064,394.000 253.423,394.000 252.776 C 394.000 252.129,394.180 251.600,394.400 251.600 C 394.620 251.600,394.800 251.071,394.800 250.424 C 394.800 249.777,394.980 249.136,395.200 249.000 C 395.420 248.864,395.600 248.144,395.600 247.400 C 395.600 246.656,395.780 245.936,396.000 245.800 C 396.220 245.664,396.400 244.584,396.400 243.400 C 396.400 242.216,396.580 241.136,396.800 241.000 C 397.020 240.864,397.200 239.773,397.200 238.576 C 397.200 237.379,397.380 236.400,397.600 236.400 C 397.820 236.400,398.000 235.601,398.000 234.624 C 398.000 233.647,398.180 232.736,398.400 232.600 C 398.620 232.464,398.800 231.499,398.800 230.456 C 398.800 229.413,399.025 228.335,399.300 228.060 C 399.690 227.670,399.800 221.515,399.800 200.000 C 399.800 178.485,399.690 172.330,399.300 171.940 C 399.025 171.665,398.800 170.587,398.800 169.544 C 398.800 168.501,398.620 167.536,398.400 167.400 C 398.180 167.264,398.000 166.353,398.000 165.376 C 398.000 164.399,397.820 163.600,397.600 163.600 C 397.380 163.600,397.200 162.621,397.200 161.424 C 397.200 160.227,397.020 159.136,396.800 159.000 C 396.580 158.864,396.400 157.784,396.400 156.600 C 396.400 155.416,396.220 154.336,396.000 154.200 C 395.780 154.064,395.600 153.344,395.600 152.600 C 395.600 151.856,395.420 151.136,395.200 151.000 C 394.980 150.864,394.800 150.223,394.800 149.576 C 394.800 148.929,394.620 148.400,394.400 148.400 C 394.180 148.400,394.000 147.871,394.000 147.224 C 394.000 146.577,393.820 145.936,393.600 145.800 C 393.380 145.664,393.200 145.124,393.200 144.600 C 393.200 144.076,393.020 143.536,392.800 143.400 C 392.580 143.264,392.400 142.544,392.400 141.800 C 392.400 141.056,392.220 140.336,392.000 140.200 C 391.780 140.064,391.600 139.344,391.600 138.600 C 391.600 137.856,391.443 137.150,391.252 137.032 C 391.060 136.914,390.795 136.274,390.662 135.611 C 390.529 134.947,390.056 133.650,389.610 132.727 C 389.165 131.805,388.800 130.811,388.800 130.519 C 388.800 130.228,388.642 129.677,388.449 129.295 C 388.256 128.913,387.881 127.880,387.616 127.000 C 387.350 126.120,386.698 124.455,386.167 123.300 C 384.319 119.286,383.114 116.595,382.809 115.800 C 382.325 114.541,380.633 111.021,380.405 110.800 C 380.291 110.690,379.944 110.105,379.632 109.500 C 379.320 108.895,378.915 108.400,378.732 108.400 C 378.550 108.400,378.400 107.961,378.400 107.424 C 378.400 106.887,378.220 106.336,378.000 106.200 C 377.780 106.064,377.600 105.686,377.600 105.360 C 377.600 105.033,377.240 104.380,376.800 103.908 C 376.360 103.436,376.000 102.813,376.000 102.525 C 376.000 102.236,375.820 102.000,375.600 102.000 C 375.380 102.000,375.200 101.640,375.200 101.200 C 375.200 100.760,375.054 100.400,374.875 100.400 C 374.696 100.400,374.291 99.730,373.975 98.910 C 373.659 98.091,372.815 96.565,372.100 95.520 C 371.385 94.474,370.800 93.435,370.800 93.210 C 370.800 92.984,370.648 92.800,370.463 92.800 C 370.277 92.800,369.696 91.945,369.170 90.900 C 368.644 89.855,367.896 88.709,367.507 88.353 C 367.118 87.997,366.800 87.529,366.800 87.312 C 366.800 87.096,366.260 86.354,365.600 85.663 C 364.940 84.972,364.400 84.215,364.400 83.980 C 364.400 83.514,362.220 80.589,361.100 79.553 C 360.715 79.197,360.400 78.782,360.400 78.630 C 360.400 78.383,358.136 75.307,357.581 74.800 C 357.461 74.690,356.475 73.435,355.389 72.011 C 354.304 70.586,352.782 68.718,352.008 67.860 C 350.530 66.220,345.111 60.486,344.390 59.800 C 343.845 59.280,340.456 55.891,340.085 55.495 C 339.549 54.921,333.705 49.402,332.140 47.992 C 331.282 47.218,329.414 45.696,327.989 44.611 C 326.565 43.525,325.310 42.539,325.200 42.419 C 324.693 41.864,321.617 39.600,321.370 39.600 C 321.218 39.600,320.803 39.285,320.447 38.900 C 319.411 37.780,316.486 35.600,316.020 35.600 C 315.785 35.600,315.028 35.060,314.337 34.400 C 313.646 33.740,312.904 33.200,312.688 33.200 C 312.471 33.200,312.003 32.882,311.647 32.493 C 311.291 32.104,310.145 31.356,309.100 30.830 C 308.055 30.304,307.200 29.723,307.200 29.537 C 307.200 29.352,307.016 29.200,306.790 29.200 C 306.565 29.200,305.526 28.615,304.480 27.900 C 303.435 27.185,301.909 26.341,301.090 26.025 C 300.270 25.709,299.600 25.304,299.600 25.125 C 299.600 24.946,299.240 24.800,298.800 24.800 C 298.360 24.800,298.000 24.620,298.000 24.400 C 298.000 24.180,297.764 24.000,297.475 24.000 C 297.187 24.000,296.564 23.640,296.092 23.200 C 295.620 22.760,294.967 22.400,294.640 22.400 C 294.314 22.400,293.936 22.220,293.800 22.000 C 293.664 21.780,293.113 21.600,292.576 21.600 C 292.039 21.600,291.600 21.450,291.600 21.268 C 291.600 21.085,291.105 20.680,290.500 20.368 C 289.895 20.056,289.310 19.709,289.200 19.595 C 288.979 19.367,285.459 17.675,284.200 17.191 C 283.405 16.886,280.714 15.681,276.700 13.833 C 275.545 13.302,273.880 12.650,273.000 12.384 C 272.120 12.119,271.087 11.744,270.705 11.551 C 270.323 11.358,269.772 11.200,269.481 11.200 C 269.189 11.200,268.195 10.835,267.273 10.390 C 266.350 9.944,265.053 9.471,264.389 9.338 C 263.726 9.205,263.086 8.940,262.968 8.748 C 262.850 8.557,262.144 8.400,261.400 8.400 C 260.656 8.400,259.936 8.220,259.800 8.000 C 259.664 7.780,258.944 7.600,258.200 7.600 C 257.456 7.600,256.736 7.420,256.600 7.200 C 256.464 6.980,255.924 6.800,255.400 6.800 C 254.876 6.800,254.336 6.620,254.200 6.400 C 254.064 6.180,253.423 6.000,252.776 6.000 C 252.129 6.000,251.600 5.820,251.600 5.600 C 251.600 5.380,251.071 5.200,250.424 5.200 C 249.777 5.200,249.136 5.020,249.000 4.800 C 248.864 4.580,248.144 4.400,247.400 4.400 C 246.656 4.400,245.936 4.220,245.800 4.000 C 245.664 3.780,244.584 3.600,243.400 3.600 C 242.216 3.600,241.136 3.420,241.000 3.200 C 240.864 2.980,239.773 2.800,238.576 2.800 C 237.379 2.800,236.400 2.620,236.400 2.400 C 236.400 2.180,235.601 2.000,234.624 2.000 C 233.647 2.000,232.736 1.820,232.600 1.600 C 232.464 1.380,231.499 1.200,230.456 1.200 C 229.413 1.200,228.335 0.975,228.060 0.700 C 227.574 0.213,181.736 -0.147,174.800 0.282 M300.146 51.200 C 300.960 52.051,301.294 168.885,300.486 170.300 L 299.972 171.200 284.840 171.200 C 270.153 171.200,269.677 171.176,268.657 170.374 C 267.593 169.536,259.795 159.766,255.400 153.762 C 242.872 136.648,238.058 132.374,228.778 130.123 C 226.026 129.455,223.221 129.400,191.800 129.400 L 157.800 129.400 154.800 130.342 C 148.016 132.471,144.627 135.505,139.193 144.315 C 137.604 146.892,134.821 151.340,133.010 154.200 C 123.373 169.416,120.492 175.319,121.006 178.800 C 121.943 185.147,126.034 188.620,132.200 188.304 C 138.270 187.994,139.250 187.030,148.200 172.567 C 153.817 163.489,160.461 153.235,161.334 152.294 L 162.362 151.187 173.676 151.294 C 184.185 151.392,184.999 151.451,185.127 152.117 C 185.203 152.511,183.412 156.201,181.148 160.317 C 167.061 185.921,163.983 194.291,162.408 211.271 C 162.177 213.762,161.808 217.240,161.587 219.000 C 161.367 220.760,161.014 225.530,160.803 229.600 C 160.009 244.906,159.303 251.734,158.441 252.440 C 157.753 253.003,154.952 253.110,135.130 253.326 C 101.144 253.698,97.439 254.390,89.207 261.903 C 84.709 266.008,79.342 275.078,79.683 277.997 L 79.800 279.000 125.200 279.125 C 171.859 279.254,175.128 279.167,179.000 277.689 C 183.236 276.072,185.361 271.784,186.379 262.800 C 187.397 253.821,187.654 251.360,188.405 243.400 C 189.988 226.604,190.722 221.200,191.420 221.200 C 191.682 221.200,193.657 224.575,195.809 228.700 C 197.962 232.825,200.389 237.460,201.203 239.000 C 202.017 240.540,204.718 245.760,207.205 250.600 C 209.691 255.440,212.438 260.750,213.308 262.400 C 214.177 264.050,216.603 268.730,218.697 272.800 C 220.792 276.870,223.764 282.630,225.301 285.600 C 226.839 288.570,229.626 293.970,231.495 297.600 C 238.813 311.816,240.255 313.885,244.464 316.217 L 246.600 317.400 259.594 317.400 C 271.408 317.400,272.600 317.339,272.717 316.733 C 272.788 316.366,270.743 311.776,268.172 306.533 C 265.601 301.290,262.442 294.794,261.152 292.099 C 259.862 289.403,253.516 276.533,247.050 263.499 C 240.584 250.464,234.124 237.370,232.693 234.400 C 231.263 231.430,228.476 225.670,226.500 221.600 C 216.739 201.494,217.106 203.724,221.968 194.042 C 223.980 190.036,226.402 185.013,227.350 182.879 C 230.955 174.771,234.535 167.634,235.107 167.414 C 236.037 167.057,238.109 169.349,241.958 174.992 C 254.572 193.484,255.112 193.741,281.280 193.645 C 299.066 193.580,299.572 193.600,299.980 194.363 C 300.524 195.379,300.560 325.927,300.017 326.786 C 298.984 328.419,281.224 345.797,280.113 346.262 C 278.626 346.883,248.218 347.053,247.259 346.445 C 246.322 345.851,247.209 344.847,257.643 334.684 C 263.175 329.296,267.596 324.717,267.466 324.507 C 267.049 323.832,246.924 323.561,243.916 324.190 C 240.748 324.853,237.024 326.678,233.800 329.149 C 231.494 330.916,218.356 343.436,217.276 344.896 C 215.844 346.831,218.673 346.741,152.820 346.944 C 89.524 347.140,88.400 347.125,88.400 346.094 C 88.400 345.404,93.883 339.407,100.370 333.001 C 106.848 326.604,106.331 328.986,106.231 305.980 C 106.184 295.299,106.013 286.344,105.850 286.080 C 105.626 285.719,101.282 285.600,88.253 285.600 C 67.920 285.600,69.073 285.832,70.147 281.948 C 74.939 264.618,89.468 249.848,102.637 248.918 C 104.839 248.763,106.166 248.481,106.480 248.103 C 106.850 247.658,106.972 225.062,107.013 149.550 C 107.045 90.672,107.212 51.435,107.433 51.226 C 108.193 50.505,111.586 50.481,204.486 50.540 C 288.432 50.593,299.639 50.670,300.146 51.200 M224.000 79.403 C 198.558 85.607,203.275 124.719,229.474 124.793 C 251.076 124.854,261.135 99.022,245.253 84.274 C 240.260 79.638,231.381 77.603,224.000 79.403 " stroke="none" fill="#048304" fill-rule="evenodd"></path></g></svg>